<!DOCTYPE svg PUBLIC "-//W3C//DTD SVG 20010904//EN" "http://www.w3.org/TR/2001/REC-SVG-20010904/DTD/svg10.dtd">
<svg version="1.0" xmlns="http://www.w3.org/2000/svg" width="1600px" height="1600px" viewBox="0 0 16000 16000" preserveAspectRatio="xMidYMid meet">
<g id="layer101" fill="#000000" stroke="none">
 <path d="M7984 15988 c-5 -7 -52 -98 -105 -203 -53 -104 -148 -291 -212 -415 -220 -432 -365 -717 -484 -950 -66 -129 -126 -246 -133 -260 -7 -14 -17 -33 -22 -42 -13 -29 -27 -57 -40 -80 -7 -13 -56 -108 -109 -213 -101 -199 -247 -484 -444 -870 -65 -126 -175 -342 -245 -480 -69 -137 -133 -261 -140 -275 -14 -27 -28 -54 -42 -82 -4 -10 -13 -28 -20 -40 -7 -13 -56 -108 -109 -213 -53 -104 -146 -287 -206 -405 -272 -531 -344 -672 -472 -925 -76 -148 -143 -280 -149 -292 -7 -13 -16 -32 -22 -43 -5 -11 -14 -29 -20 -40 -6 -11 -15 -30 -22 -42 -7 -13 -56 -108 -109 -213 -53 -104 -148 -291 -212 -415 -220 -432 -365 -717 -484 -950 -66 -129 -125 -245 -131 -257 -7 -13 -16 -32 -22 -43 -5 -11 -14 -29 -20 -40 -5 -11 -15 -30 -22 -42 -7 -13 -56 -108 -109 -213 -234 -460 -338 -663 -363 -710 -43 -79 -172 -378 -215 -497 -60 -165 -65 -181 -120 -368 -68 -233 -125 -525 -160 -830 -18 -146 -21 -235 -21 -540 0 -385 10 -525 61 -830 28 -170 92 -459 123 -555 7 -22 23 -74 36 -115 21 -71 31 -101 81 -238 47 -130 170 -412 232 -532 64 -125 118 -223 131 -240 6 -8 20 -31 30 -50 10 -19 35 -60 54 -90 70 -109 146 -225 152 -230 3 -3 19 -25 35 -50 31 -47 216 -283 244 -312 9 -9 39 -42 66 -75 61 -70 335 -347 425 -428 97 -87 308 -255 320 -255 5 0 10 -4 10 -8 0 -5 26 -26 58 -48 31 -21 59 -41 62 -44 5 -6 109 -77 139 -95 18 -12 61 -38 111 -71 19 -12 54 -32 77 -45 22 -13 71 -41 108 -62 121 -70 322 -169 460 -228 134 -56 191 -79 198 -79 4 0 27 -9 49 -20 23 -11 47 -20 54 -20 6 0 33 -8 60 -19 184 -70 494 -149 794 -200 291 -51 372 -56 830 -56 458 0 539 5 830 56 300 51 610 130 794 200 27 11 54 19 60 19 7 0 31 9 54 20 22 11 45 20 49 20 7 0 64 23 198 79 138 59 339 158 460 228 37 21 86 49 108 62 23 13 58 33 77 45 50 33 93 59 111 71 30 18 134 89 139 95 3 3 31 23 63 44 31 22 57 43 57 48 0 4 5 8 10 8 12 0 223 168 320 255 90 81 364 358 425 428 28 33 57 66 66 75 28 29 213 265 244 312 16 25 32 47 35 50 6 5 82 121 152 230 19 30 44 71 54 90 10 19 24 42 30 50 13 17 67 115 131 240 62 120 185 402 232 533 60 164 60 164 120 367 67 226 124 524 162 841 18 158 20 218 17 580 -5 417 -9 479 -59 779 -37 222 -93 460 -161 680 -41 130 -112 323 -158 425 -10 22 -38 87 -63 145 -25 58 -74 159 -108 225 -68 133 -260 509 -408 800 -53 105 -102 200 -109 213 -21 40 -33 63 -172 337 -76 149 -188 368 -249 488 -61 119 -161 315 -222 435 -61 119 -155 303 -208 407 -53 105 -102 200 -109 213 -7 12 -16 31 -22 42 -5 11 -14 29 -20 40 -5 11 -15 30 -22 43 -6 12 -65 128 -131 257 -119 233 -264 518 -484 950 -64 124 -159 311 -212 415 -53 105 -103 201 -111 215 -7 14 -18 34 -23 45 -191 377 -346 681 -625 1225 -57 113 -148 291 -201 395 -53 105 -102 200 -109 213 -13 23 -27 51 -40 80 -5 9 -15 28 -22 42 -7 14 -67 131 -133 260 -115 227 -241 473 -484 950 -64 124 -161 315 -217 424 -55 110 -106 201 -113 203 -6 2 -15 -2 -19 -9z m321 -8014 c316 -32 568 -98 889 -233 50 -21 230 -111 281 -141 22 -13 49 -28 60 -34 72 -39 337 -230 391 -280 6 -6 39 -36 74 -66 79 -70 150 -141 220 -220 30 -35 61 -69 69 -77 20 -21 141 -181 176 -233 16 -25 33 -47 36 -50 3 -3 14 -18 23 -35 9 -16 25 -43 35 -60 10 -16 28 -46 39 -65 31 -52 149 -290 165 -336 8 -21 25 -64 37 -94 51 -130 104 -317 139 -495 35 -175 46 -312 46 -555 0 -300 -21 -477 -86 -735 -36 -141 -113 -371 -130 -390 -5 -5 -9 -15 -9 -22 0 -14 -126 -273 -160 -330 -11 -18 -29 -48 -40 -65 -11 -18 -27 -46 -36 -63 -9 -16 -20 -32 -23 -35 -5 -4 -70 -98 -96 -139 -5 -8 -15 -20 -21 -26 -6 -5 -26 -30 -44 -55 -19 -25 -41 -52 -49 -61 -9 -9 -41 -44 -71 -79 -72 -82 -145 -155 -221 -221 -34 -30 -69 -61 -78 -70 -9 -8 -36 -30 -61 -49 -25 -18 -50 -38 -55 -44 -6 -6 -18 -15 -26 -21 -41 -26 -135 -91 -139 -96 -3 -3 -18 -14 -35 -23 -16 -9 -43 -25 -60 -36 -73 -47 -377 -200 -398 -200 -7 0 -17 -4 -23 -9 -11 -10 -98 -42 -219 -80 -329 -104 -545 -136 -915 -136 -352 0 -568 33 -895 136 -121 38 -208 70 -219 80 -6 5 -16 9 -24 9 -18 0 -310 144 -357 176 -20 13 -38 24 -41 24 -8 0 -186 120 -210 141 -11 11 -26 19 -32 19 -7 0 -12 4 -12 9 0 4 -17 20 -37 34 -21 13 -54 39 -73 57 -19 17 -52 46 -73 63 -96 81 -277 272 -357 377 -18 25 -38 50 -44 55 -6 6 -15 18 -21 26 -20 32 -90 134 -95 139 -7 7 -55 82 -64 100 -4 8 -18 33 -31 55 -33 55 -165 322 -165 334 0 5 -8 26 -19 48 -21 43 -31 72 -70 198 -47 147 -59 194 -84 325 -87 439 -75 887 34 1315 36 142 113 371 130 390 5 5 9 15 9 22 0 14 126 274 159 328 48 79 62 102 77 130 9 17 20 32 23 35 5 4 70 98 96 139 6 8 15 20 21 26 6 5 26 30 44 55 19 25 41 52 49 61 9 9 40 44 70 78 68 78 144 154 222 222 34 30 69 61 78 70 9 8 36 30 61 49 25 18 50 38 55 44 6 6 18 16 27 21 38 24 133 90 138 96 3 3 19 14 35 23 28 15 50 28 130 77 47 28 287 146 331 162 21 8 64 25 94 37 213 84 489 148 750 175 254 26 341 26 605 -1z"/>
 </g>

</svg>