<!DOCTYPE svg PUBLIC "-//W3C//DTD SVG 20010904//EN" "http://www.w3.org/TR/2001/REC-SVG-20010904/DTD/svg10.dtd">
<svg version="1.0" xmlns="http://www.w3.org/2000/svg" width="797px" height="253px" viewBox="0 0 7970 2530" preserveAspectRatio="xMidYMid meet">
<g id="layer101" fill="#000000" stroke="none">
 <path d="M930 2350 c-377 -98 -740 -193 -808 -211 l-122 -32 0 -189 0 -190 63 7 c34 3 70 9 79 11 10 3 18 -2 22 -13 3 -10 71 -272 152 -583 81 -311 148 -567 150 -569 2 -3 915 184 1002 206 l22 5 0 603 0 602 83 14 82 14 3 253 2 252 -22 -1 c-13 0 -331 -81 -708 -179z m-110 -899 l0 -468 -46 -18 c-25 -9 -46 -16 -48 -14 -1 2 -47 200 -101 439 -54 239 -100 440 -102 447 -3 7 46 23 139 46 79 19 146 35 151 36 4 1 7 -210 7 -468z"/>
 <path d="M1770 1641 l0 -850 53 -10 c115 -23 576 -101 596 -101 21 0 21 3 21 244 l0 244 48 -6 c26 -2 49 -6 51 -8 2 -2 28 -117 56 -254 29 -138 55 -254 58 -257 6 -6 465 -122 485 -123 8 0 12 20 12 67 0 60 -14 111 -122 434 l-122 365 142 228 143 227 -3 116 -3 115 -260 79 c-143 42 -262 74 -265 69 -3 -6 -30 -121 -59 -257 -29 -137 -57 -252 -61 -257 -5 -4 -31 -1 -59 9 l-51 17 0 287 0 288 -318 91 c-174 51 -323 92 -330 92 -9 0 -12 -177 -12 -849z"/>
 <path d="M6787 2090 c-255 -45 -381 -349 -235 -566 70 -104 182 -158 323 -157 102 1 176 28 244 89 169 152 158 429 -23 565 -79 59 -205 87 -309 69z m139 -155 c200 -59 188 -366 -17 -415 -39 -10 -58 -9 -101 4 -197 57 -197 352 -1 413 51 16 61 15 119 -2z"/>
 <path d="M3680 1730 l0 -350 80 0 79 0 3 146 3 146 134 -146 135 -146 100 0 100 0 -59 63 c-33 34 -97 101 -143 148 l-83 85 146 197 c80 108 145 199 145 202 0 3 -44 4 -97 3 l-97 -3 -105 -144 -105 -144 -38 44 -37 44 -1 103 0 102 -80 0 -80 0 0 -350z"/>
 <path d="M4369 2033 c11 -27 78 -185 150 -353 l130 -305 76 0 76 0 149 350 149 350 -81 3 c-45 2 -84 -1 -88 -5 -3 -4 -19 -38 -34 -76 l-28 -68 -146 3 -146 3 -30 73 -30 72 -83 0 -83 0 19 -47z m398 -353 c-22 -55 -43 -97 -46 -95 -4 5 -81 185 -81 192 0 1 38 3 84 3 l84 0 -41 -100z"/>
 <path d="M5200 1730 l0 -350 188 0 c175 0 190 2 237 24 97 45 141 124 133 241 -5 80 -33 132 -92 172 -63 43 -103 53 -213 53 l-93 0 0 105 0 105 -80 0 -80 0 0 -350z m351 -23 c60 -40 62 -125 3 -163 -18 -12 -53 -19 -110 -22 l-84 -5 0 107 0 106 79 0 c65 0 84 -4 112 -23z"/>
 <path d="M6030 1805 l0 -275 -105 0 -105 0 0 -75 0 -75 295 0 295 0 0 75 0 75 -110 0 -110 0 0 275 0 275 -80 0 -80 0 0 -275z"/>
 <path d="M7370 1730 l0 -350 80 0 80 0 0 135 0 135 140 0 140 0 0 -135 0 -135 80 0 80 0 0 350 0 350 -80 0 -80 0 0 -140 0 -140 -140 0 -140 0 0 140 0 140 -80 0 -80 0 0 -350z"/>
 <path d="M3600 1111 l0 -90 33 -3 c29 -3 34 -9 55 -60 31 -79 41 -141 49 -285 l6 -123 174 0 173 0 0 235 0 235 36 0 c36 0 36 1 30 31 -3 17 -6 58 -6 90 0 59 0 59 -30 59 l-30 0 0 -60 0 -60 -210 0 -210 0 0 29 c0 16 -3 43 -6 60 -6 26 -11 31 -35 31 l-29 0 0 -89z m420 -296 l0 -205 -110 0 -110 0 0 81 c0 97 -15 203 -40 275 l-19 54 140 0 139 0 0 -205z"/>
 <path d="M4374 1071 c-51 -23 -104 -75 -130 -127 -14 -30 -19 -60 -19 -129 0 -80 3 -95 27 -137 99 -167 335 -185 450 -33 91 121 73 289 -42 388 -22 18 -57 39 -79 45 -59 18 -160 15 -207 -7z m224 -73 c74 -49 108 -155 81 -252 -16 -57 -85 -121 -143 -134 -26 -5 -55 -8 -64 -7 -9 2 -29 6 -44 10 -37 7 -95 60 -120 108 -31 61 -23 161 17 218 64 90 184 115 273 57z"/>
 <path d="M4870 815 l0 -265 190 0 190 0 0 30 0 30 -155 0 -155 0 0 80 0 80 113 0 c131 0 184 18 217 72 27 44 27 122 0 166 -36 58 -83 72 -252 72 l-148 0 0 -265z m324 176 c20 -19 26 -34 26 -66 0 -32 -6 -47 -26 -66 -23 -22 -35 -24 -140 -27 l-114 -4 0 97 0 97 114 -4 c105 -3 117 -5 140 -27z"/>
 <path d="M5400 814 l0 -266 138 4 c153 4 195 17 234 71 22 31 35 109 24 151 -3 14 -20 41 -37 61 -39 44 -106 65 -211 65 l-78 0 0 90 0 90 -35 0 -35 0 0 -266z m277 1 c37 -22 53 -52 53 -101 0 -68 -66 -104 -192 -104 l-68 0 0 116 0 116 88 -4 c61 -3 96 -9 119 -23z"/>
 <path d="M5910 815 l0 -265 35 0 35 0 0 98 0 99 104 6 c165 9 226 51 226 156 0 74 -24 119 -80 148 -39 21 -57 23 -182 23 l-138 0 0 -265z m291 182 c62 -42 62 -123 0 -160 -22 -13 -53 -17 -125 -17 l-96 0 0 100 0 100 94 0 c80 0 98 -3 127 -23z"/>
 <path d="M6370 815 l0 -265 35 0 35 0 0 265 0 265 -35 0 -35 0 0 -265z"/>
 <path d="M6580 815 l0 -265 35 0 35 0 0 212 0 211 152 -211 c145 -203 153 -212 185 -212 l33 0 0 265 0 265 -35 0 -35 0 -2 -207 -3 -207 -148 207 c-143 201 -149 207 -182 207 l-35 0 0 -265z"/>
 <path d="M858 522 c-422 -97 -764 -179 -760 -183 10 -9 1512 -339 1543 -339 20 0 1481 366 1538 386 8 2 12 7 9 10 -6 5 -1537 304 -1553 303 -5 -1 -355 -80 -777 -177z"/>
 <path d="M6762 509 c-31 -9 -72 -58 -72 -86 0 -22 42 -14 66 12 13 14 34 25 48 25 14 0 33 -10 44 -25 25 -31 62 -34 62 -4 0 24 -51 79 -73 79 -9 0 -21 2 -29 4 -7 2 -28 0 -46 -5z"/>
 </g>
<g id="layer102" fill="#966400" stroke="none">
 <path d="M930 2350 c-377 -98 -740 -193 -808 -211 l-122 -32 0 -189 0 -190 63 7 c34 3 70 9 79 11 10 3 18 -2 22 -13 3 -10 71 -272 152 -583 81 -311 148 -567 150 -569 2 -3 915 184 1002 206 l22 5 0 603 0 602 83 14 82 14 3 253 2 252 -22 -1 c-13 0 -331 -81 -708 -179z m-110 -899 l0 -468 -46 -18 c-25 -9 -46 -16 -48 -14 -1 2 -47 200 -101 439 -54 239 -100 440 -102 447 -3 7 46 23 139 46 79 19 146 35 151 36 4 1 7 -210 7 -468z"/>
 <path d="M1770 1641 l0 -850 53 -10 c115 -23 576 -101 596 -101 21 0 21 3 21 244 l0 244 48 -6 c26 -2 49 -6 51 -8 2 -2 28 -117 56 -254 29 -138 55 -254 58 -257 6 -6 465 -122 485 -123 8 0 12 20 12 67 0 60 -14 111 -122 434 l-122 365 142 228 143 227 -3 116 -3 115 -260 79 c-143 42 -262 74 -265 69 -3 -6 -30 -121 -59 -257 -29 -137 -57 -252 -61 -257 -5 -4 -31 -1 -59 9 l-51 17 0 287 0 288 -318 91 c-174 51 -323 92 -330 92 -9 0 -12 -177 -12 -849z"/>
 <path d="M858 522 c-422 -97 -764 -179 -760 -183 10 -9 1512 -339 1543 -339 20 0 1481 366 1538 386 8 2 12 7 9 10 -6 5 -1537 304 -1553 303 -5 -1 -355 -80 -777 -177z"/>
 </g>
<g id="layer103" fill="#e8a300" stroke="none">
 <path d="M930 2350 c-377 -98 -740 -193 -808 -211 l-122 -32 0 -189 0 -190 63 7 c34 3 70 9 79 11 10 3 18 -2 22 -13 3 -10 71 -272 152 -583 81 -311 148 -567 150 -569 2 -3 915 184 1002 206 l22 5 0 603 0 602 83 14 82 14 3 253 2 252 -22 -1 c-13 0 -331 -81 -708 -179z m-110 -899 l0 -468 -46 -18 c-25 -9 -46 -16 -48 -14 -1 2 -47 200 -101 439 -54 239 -100 440 -102 447 -3 7 46 23 139 46 79 19 146 35 151 36 4 1 7 -210 7 -468z"/>
 <path d="M1770 1641 l0 -850 53 -10 c115 -23 576 -101 596 -101 21 0 21 3 21 244 l0 244 48 -6 c26 -2 49 -6 51 -8 2 -2 28 -117 56 -254 29 -138 55 -254 58 -257 6 -6 465 -122 485 -123 8 0 12 20 12 67 0 60 -14 111 -122 434 l-122 365 142 228 143 227 -3 116 -3 115 -260 79 c-143 42 -262 74 -265 69 -3 -6 -30 -121 -59 -257 -29 -137 -57 -252 -61 -257 -5 -4 -31 -1 -59 9 l-51 17 0 287 0 288 -318 91 c-174 51 -323 92 -330 92 -9 0 -12 -177 -12 -849z"/>
 </g>

</svg>